<mxfile host="app.diagrams.net" agent="Mozilla/5.0 (Windows NT 10.0; Win64; x64; rv:129.0) Gecko/20100101 Firefox/129.0" version="24.7.6">
  <diagram id="C5RBs43oDa-KdzZeNtuy" name="Page-1">
    <mxGraphModel dx="794" dy="650" grid="1" gridSize="10" guides="1" tooltips="1" connect="1" arrows="1" fold="1" page="1" pageScale="1" pageWidth="850" pageHeight="1100" math="0" shadow="0">
      <root>
        <mxCell id="WIyWlLk6GJQsqaUBKTNV-0" />
        <mxCell id="WIyWlLk6GJQsqaUBKTNV-1" parent="WIyWlLk6GJQsqaUBKTNV-0" />
        <mxCell id="tHsD7prYZfne__D1nIkh-65" value="" style="ellipse;fillColor=strokeColor;" parent="WIyWlLk6GJQsqaUBKTNV-1" vertex="1">
          <mxGeometry x="60" y="70" width="20" height="20" as="geometry" />
        </mxCell>
        <mxCell id="tHsD7prYZfne__D1nIkh-66" value="Editing" style="rounded=1;absoluteArcSize=1;arcSize=14;whiteSpace=wrap;strokeWidth=2;" parent="WIyWlLk6GJQsqaUBKTNV-1" vertex="1">
          <mxGeometry x="440" y="40" width="80" height="80" as="geometry" />
        </mxCell>
        <mxCell id="tHsD7prYZfne__D1nIkh-67" value="Submitting" style="rounded=1;absoluteArcSize=1;arcSize=14;whiteSpace=wrap;strokeWidth=2;" parent="WIyWlLk6GJQsqaUBKTNV-1" vertex="1">
          <mxGeometry x="440" y="160" width="80" height="80" as="geometry" />
        </mxCell>
        <mxCell id="tHsD7prYZfne__D1nIkh-68" value="" style="curved=1;startArrow=none;;exitX=1;exitY=0.5;entryX=0;entryY=0.75;entryDx=0;entryDy=0;exitDx=0;exitDy=0;" parent="WIyWlLk6GJQsqaUBKTNV-1" source="tHsD7prYZfne__D1nIkh-65" edge="1">
          <mxGeometry relative="1" as="geometry">
            <Array as="points" />
            <mxPoint x="160" y="80" as="targetPoint" />
          </mxGeometry>
        </mxCell>
        <mxCell id="tHsD7prYZfne__D1nIkh-69" value="" style="startArrow=none;;exitX=0.5;exitY=1;entryX=0.49;entryY=-0.01;edgeStyle=orthogonalEdgeStyle;rounded=0;curved=0;exitDx=0;exitDy=0;" parent="WIyWlLk6GJQsqaUBKTNV-1" source="tHsD7prYZfne__D1nIkh-66" target="tHsD7prYZfne__D1nIkh-67" edge="1">
          <mxGeometry relative="1" as="geometry">
            <Array as="points">
              <mxPoint x="480" y="160" />
              <mxPoint x="479" y="160" />
            </Array>
          </mxGeometry>
        </mxCell>
        <mxCell id="tHsD7prYZfne__D1nIkh-71" value="" style="curved=0;startArrow=none;;entryX=0.5;entryY=0;rounded=0;entryDx=0;entryDy=0;" parent="WIyWlLk6GJQsqaUBKTNV-1" edge="1">
          <mxGeometry relative="1" as="geometry">
            <Array as="points" />
            <mxPoint x="480" y="240" as="sourcePoint" />
            <mxPoint x="480" y="280" as="targetPoint" />
          </mxGeometry>
        </mxCell>
        <mxCell id="tHsD7prYZfne__D1nIkh-74" value="&lt;div&gt;Initial&lt;/div&gt;&lt;div&gt;state&lt;/div&gt;" style="text;html=1;align=center;verticalAlign=middle;whiteSpace=wrap;rounded=0;" parent="WIyWlLk6GJQsqaUBKTNV-1" vertex="1">
          <mxGeometry x="40" y="40" width="60" height="20" as="geometry" />
        </mxCell>
        <mxCell id="tHsD7prYZfne__D1nIkh-77" value="Change forwarded to Business Manager for approval" style="text;html=1;align=center;verticalAlign=middle;whiteSpace=wrap;rounded=0;" parent="WIyWlLk6GJQsqaUBKTNV-1" vertex="1">
          <mxGeometry x="280" y="250" width="190" height="20" as="geometry" />
        </mxCell>
        <mxCell id="tHsD7prYZfne__D1nIkh-78" value="Authorizing Change" style="rounded=1;absoluteArcSize=1;arcSize=14;whiteSpace=wrap;strokeWidth=2;" parent="WIyWlLk6GJQsqaUBKTNV-1" vertex="1">
          <mxGeometry x="440" y="280" width="80" height="80" as="geometry" />
        </mxCell>
        <mxCell id="tHsD7prYZfne__D1nIkh-79" value="Change Approved by Business Manager" style="text;html=1;align=center;verticalAlign=middle;whiteSpace=wrap;rounded=0;" parent="WIyWlLk6GJQsqaUBKTNV-1" vertex="1">
          <mxGeometry x="280" y="370" width="190" height="20" as="geometry" />
        </mxCell>
        <mxCell id="tHsD7prYZfne__D1nIkh-80" value="" style="curved=0;startArrow=none;;entryX=0.5;entryY=0;rounded=0;entryDx=0;entryDy=0;exitX=0.5;exitY=1;exitDx=0;exitDy=0;" parent="WIyWlLk6GJQsqaUBKTNV-1" source="tHsD7prYZfne__D1nIkh-78" edge="1">
          <mxGeometry relative="1" as="geometry">
            <Array as="points" />
            <mxPoint x="480" y="360" as="sourcePoint" />
            <mxPoint x="480" y="400" as="targetPoint" />
          </mxGeometry>
        </mxCell>
        <mxCell id="tHsD7prYZfne__D1nIkh-81" value="Patient-Record Updated" style="rounded=1;absoluteArcSize=1;arcSize=14;whiteSpace=wrap;strokeWidth=2;" parent="WIyWlLk6GJQsqaUBKTNV-1" vertex="1">
          <mxGeometry x="440" y="400" width="80" height="80" as="geometry" />
        </mxCell>
        <mxCell id="tHsD7prYZfne__D1nIkh-82" value="" style="endArrow=classic;html=1;rounded=0;edgeStyle=orthogonalEdgeStyle;exitX=0.75;exitY=0;exitDx=0;exitDy=0;entryX=0.75;entryY=1;entryDx=0;entryDy=0;" parent="WIyWlLk6GJQsqaUBKTNV-1" target="tHsD7prYZfne__D1nIkh-66" edge="1">
          <mxGeometry width="50" height="50" relative="1" as="geometry">
            <mxPoint x="500" y="160" as="sourcePoint" />
            <mxPoint x="520" y="180" as="targetPoint" />
            <Array as="points">
              <mxPoint x="500" y="160" />
              <mxPoint x="500" y="160" />
            </Array>
          </mxGeometry>
        </mxCell>
        <mxCell id="tHsD7prYZfne__D1nIkh-83" value="Invalid datatype" style="text;html=1;align=center;verticalAlign=middle;whiteSpace=wrap;rounded=0;" parent="WIyWlLk6GJQsqaUBKTNV-1" vertex="1">
          <mxGeometry x="500" y="120" width="70" height="40" as="geometry" />
        </mxCell>
        <mxCell id="tHsD7prYZfne__D1nIkh-84" value="" style="endArrow=classic;html=1;rounded=0;edgeStyle=orthogonalEdgeStyle;exitX=0.75;exitY=1;exitDx=0;exitDy=0;endFill=1;entryX=1;entryY=0.5;entryDx=0;entryDy=0;startArrow=none;startFill=0;" parent="WIyWlLk6GJQsqaUBKTNV-1" source="tHsD7prYZfne__D1nIkh-78" target="tHsD7prYZfne__D1nIkh-66" edge="1">
          <mxGeometry width="50" height="50" relative="1" as="geometry">
            <mxPoint x="520" y="319.5" as="sourcePoint" />
            <mxPoint x="610" y="80" as="targetPoint" />
            <Array as="points">
              <mxPoint x="500" y="380" />
              <mxPoint x="590" y="380" />
              <mxPoint x="590" y="80" />
            </Array>
          </mxGeometry>
        </mxCell>
        <mxCell id="tHsD7prYZfne__D1nIkh-88" value="Success message sent to Receptionist" style="text;html=1;align=center;verticalAlign=middle;whiteSpace=wrap;rounded=0;" parent="WIyWlLk6GJQsqaUBKTNV-1" vertex="1">
          <mxGeometry x="360" y="470" width="90" height="50" as="geometry" />
        </mxCell>
        <mxCell id="tHsD7prYZfne__D1nIkh-96" value="" style="endArrow=classic;html=1;rounded=0;edgeStyle=orthogonalEdgeStyle;exitX=0.75;exitY=1;exitDx=0;exitDy=0;entryX=1;entryY=0.75;entryDx=0;entryDy=0;" parent="WIyWlLk6GJQsqaUBKTNV-1" source="tHsD7prYZfne__D1nIkh-67" target="tHsD7prYZfne__D1nIkh-67" edge="1">
          <mxGeometry width="50" height="50" relative="1" as="geometry">
            <mxPoint x="500" y="400" as="sourcePoint" />
            <mxPoint x="520" y="420" as="targetPoint" />
            <Array as="points">
              <mxPoint x="500" y="260" />
              <mxPoint x="540" y="260" />
              <mxPoint x="540" y="220" />
            </Array>
          </mxGeometry>
        </mxCell>
        <mxCell id="tHsD7prYZfne__D1nIkh-97" value="Network error" style="text;html=1;align=center;verticalAlign=middle;whiteSpace=wrap;rounded=0;" parent="WIyWlLk6GJQsqaUBKTNV-1" vertex="1">
          <mxGeometry x="540" y="220" width="50" height="40" as="geometry" />
        </mxCell>
        <mxCell id="tHsD7prYZfne__D1nIkh-127" value="Reviewing" style="rounded=1;absoluteArcSize=1;arcSize=14;whiteSpace=wrap;strokeWidth=2;" parent="WIyWlLk6GJQsqaUBKTNV-1" vertex="1">
          <mxGeometry x="300" y="40" width="80" height="80" as="geometry" />
        </mxCell>
        <mxCell id="tHsD7prYZfne__D1nIkh-128" value="" style="curved=1;startArrow=none;;exitX=1;exitY=0.75;exitDx=0;exitDy=0;entryX=0;entryY=0.75;entryDx=0;entryDy=0;" parent="WIyWlLk6GJQsqaUBKTNV-1" edge="1">
          <mxGeometry relative="1" as="geometry">
            <Array as="points" />
            <mxPoint x="380" y="80" as="sourcePoint" />
            <mxPoint x="440" y="80" as="targetPoint" />
          </mxGeometry>
        </mxCell>
        <mxCell id="tHsD7prYZfne__D1nIkh-129" value="Edit" style="text;html=1;align=center;verticalAlign=middle;whiteSpace=wrap;rounded=0;" parent="WIyWlLk6GJQsqaUBKTNV-1" vertex="1">
          <mxGeometry x="390" y="60" width="40" height="20" as="geometry" />
        </mxCell>
        <mxCell id="tHsD7prYZfne__D1nIkh-130" value="Searching" style="rounded=1;absoluteArcSize=1;arcSize=14;whiteSpace=wrap;strokeWidth=2;" parent="WIyWlLk6GJQsqaUBKTNV-1" vertex="1">
          <mxGeometry x="160" y="40" width="80" height="80" as="geometry" />
        </mxCell>
        <mxCell id="tHsD7prYZfne__D1nIkh-133" value="" style="curved=1;startArrow=none;;exitX=1;exitY=0.75;exitDx=0;exitDy=0;entryX=0;entryY=0.75;entryDx=0;entryDy=0;" parent="WIyWlLk6GJQsqaUBKTNV-1" edge="1">
          <mxGeometry relative="1" as="geometry">
            <Array as="points" />
            <mxPoint x="240" y="79.57999999999998" as="sourcePoint" />
            <mxPoint x="300" y="79.57999999999998" as="targetPoint" />
          </mxGeometry>
        </mxCell>
        <mxCell id="tHsD7prYZfne__D1nIkh-134" value="Found" style="text;html=1;align=center;verticalAlign=middle;whiteSpace=wrap;rounded=0;" parent="WIyWlLk6GJQsqaUBKTNV-1" vertex="1">
          <mxGeometry x="250" y="60" width="40" height="20" as="geometry" />
        </mxCell>
        <mxCell id="tHsD7prYZfne__D1nIkh-135" value="&lt;div&gt;Search&lt;/div&gt;&lt;div&gt;for Patient Record&lt;/div&gt;" style="text;html=1;align=center;verticalAlign=middle;whiteSpace=wrap;rounded=0;" parent="WIyWlLk6GJQsqaUBKTNV-1" vertex="1">
          <mxGeometry x="80" y="40" width="70" height="40" as="geometry" />
        </mxCell>
        <mxCell id="tHsD7prYZfne__D1nIkh-136" value="" style="ellipse;shape=endState;fillColor=strokeColor;" parent="WIyWlLk6GJQsqaUBKTNV-1" vertex="1">
          <mxGeometry x="470" y="520" width="20" height="20" as="geometry" />
        </mxCell>
        <mxCell id="tHsD7prYZfne__D1nIkh-137" value="Finish state" style="text;html=1;align=center;verticalAlign=middle;whiteSpace=wrap;rounded=0;" parent="WIyWlLk6GJQsqaUBKTNV-1" vertex="1">
          <mxGeometry x="440" y="550" width="80" height="10" as="geometry" />
        </mxCell>
        <mxCell id="LnH-XXx9bCuzO5Q69lB2-1" value="Submit" style="text;html=1;align=center;verticalAlign=middle;whiteSpace=wrap;rounded=0;" parent="WIyWlLk6GJQsqaUBKTNV-1" vertex="1">
          <mxGeometry x="430" y="130" width="50" height="20" as="geometry" />
        </mxCell>
        <mxCell id="LnH-XXx9bCuzO5Q69lB2-4" value="Change Denied, Fail message sent to Receptionist (i.e., incorrect information)" style="text;html=1;align=center;verticalAlign=middle;whiteSpace=wrap;rounded=0;" parent="WIyWlLk6GJQsqaUBKTNV-1" vertex="1">
          <mxGeometry x="590" y="170" width="90" height="100" as="geometry" />
        </mxCell>
        <mxCell id="LnH-XXx9bCuzO5Q69lB2-5" value="" style="curved=0;startArrow=none;;entryX=0.5;entryY=0;rounded=0;entryDx=0;entryDy=0;exitX=0.5;exitY=1;exitDx=0;exitDy=0;" parent="WIyWlLk6GJQsqaUBKTNV-1" edge="1">
          <mxGeometry relative="1" as="geometry">
            <Array as="points" />
            <mxPoint x="479.16999999999996" y="480" as="sourcePoint" />
            <mxPoint x="479.16999999999996" y="520" as="targetPoint" />
          </mxGeometry>
        </mxCell>
      </root>
    </mxGraphModel>
  </diagram>
</mxfile>
